<svg width="290" height="103" viewBox="0 0 290 103" fill="none" xmlns="http://www.w3.org/2000/svg">
<path d="M150.016 9.80408H131.598V61.2959H150.016V9.80408Z" fill="#272245"/>
<path d="M150.016 0H131.598V4.90476H150.016V0Z" fill="#272245"/>
<path d="M189.292 0C177.093 0 167.202 9.8747 167.202 22.0578V31.9651C167.202 35.9682 163.948 39.2164 159.94 39.2164H157.381V61.2851H169.673C181.873 61.2851 191.764 51.4104 191.764 39.2272V29.3199C191.764 25.3168 195.017 22.0687 199.026 22.0687H201.584V0H189.292Z" fill="#272245"/>
<path d="M267.882 0C260.197 0 253.423 3.92163 249.464 9.86927C245.509 3.92707 238.742 0 231.051 0C218.846 0 208.949 9.88013 208.949 22.0687V61.3013H231.051V25.7459C231.051 23.7145 232.702 22.0687 234.733 22.0687C236.77 22.0687 238.416 23.7145 238.416 25.7459V61.2959H260.517V25.7459C260.517 23.7145 262.163 22.0687 264.2 22.0687C266.237 22.0687 267.882 23.7145 267.882 25.7459V61.2959H289.984V22.0687C289.984 9.88013 280.093 0 267.882 0Z" fill="#272245"/>
<path d="M107.063 55.7611L109.48 51.5842H113.842L111.218 56.125L107.063 55.7611Z" fill="#BB1B0B"/>
<path d="M96.0747 61.4426L97.8454 58.3846L101.197 58.9766L99.2739 62.3008L96.0747 61.4426Z" fill="#BB1B0B"/>
<path d="M93.8696 86.1511L96.0368 82.4087L99.2361 85.0919L96.8787 89.1602L93.8696 86.1511Z" fill="#BB1B0B"/>
<path d="M93.9185 71.5726L95.6674 68.5417L98.8341 70.0191L96.933 73.3053L93.9185 71.5726Z" fill="#BB1B0B"/>
<path d="M88.6006 34.6701L91.148 33.2036L92.7612 35.9845L90.078 37.2392L88.6006 34.6701Z" fill="#BB1B0B"/>
<path d="M86.564 4.36705L88.9376 0.260742L91.7838 5.19809L89.182 8.90246L86.564 4.36705Z" fill="#BB1B0B"/>
<path d="M87.1177 32.1118L89.5402 30.4117L91.1534 33.2035L88.6005 34.6701L87.1177 32.1118Z" fill="#BB1B0B"/>
<path d="M87.1177 71.0674L88.6005 68.5037L91.1534 69.9702L89.5402 72.7621L87.1177 71.0674Z" fill="#BB1B0B"/>
<path d="M85.6187 29.5046L87.9054 27.5872L89.5403 30.4117L87.1178 32.1118L85.6187 29.5046Z" fill="#BB1B0B"/>
<path d="M85.6187 73.6637L87.1178 71.0674L89.5403 72.7621L87.9054 75.5811L85.6187 73.6637Z" fill="#BB1B0B"/>
<path d="M84.0601 76.3524L85.6189 73.6637L87.9057 75.5811L86.2164 78.5033L84.0601 76.3524Z" fill="#BB1B0B"/>
<path d="M77.417 25.7025L78.9976 23.4538L80.5891 26.2185L78.8835 28.2445L77.417 25.7025Z" fill="#BB1B0B"/>
<path d="M75.8311 22.9541L77.2704 20.4609L78.9977 23.4538L77.4171 25.7025L75.8311 22.9541Z" fill="#BB1B0B"/>
<path d="M73.8103 82.7074L72.6479 80.2197H75.8309L77.2703 82.7074H73.8103Z" fill="#BB1B0B"/>
<path d="M70.0083 11.6183L70.9371 8.14203H75.114L73.843 11.6183H70.0083Z" fill="#BB1B0B"/>
<path d="M70.6219 82.7074L69.7148 80.2197H72.6479L73.8103 82.7074H70.6219Z" fill="#BB1B0B"/>
<path d="M66.3364 11.6183L66.9502 8.14203H70.937L70.0082 11.6183H66.3364Z" fill="#BB1B0B"/>
<path d="M67.6344 82.7074L66.9663 80.2197H69.7147L70.6218 82.7074H67.6344Z" fill="#BB1B0B"/>
<path d="M63.7783 102.908L63.4253 98.8067H67.6185L68.3463 102.908H63.7783Z" fill="#BB1B0B"/>
<path d="M59.2915 102.908V98.8067H63.425L63.778 102.908H59.2915Z" fill="#BB1B0B"/>
<path d="M54.7998 102.908L55.1529 98.8067H59.2918V102.908H54.7998Z" fill="#BB1B0B"/>
<path d="M55.7935 91.5555L56.0705 88.3563H59.2914V91.5555H55.7935Z" fill="#BB1B0B"/>
<path d="M53.8003 20.4609L53.3223 17.756H56.326L56.5595 20.4609H53.8003Z" fill="#BB1B0B"/>
<path d="M52.2412 91.5555L52.8007 88.3563H56.0705L55.7935 91.5555H52.2412Z" fill="#BB1B0B"/>
<path d="M50.9485 20.4609L50.2207 17.756H53.3222L53.8001 20.4609H50.9485Z" fill="#BB1B0B"/>
<path d="M47.9558 20.4609L46.9673 17.756H50.2208L50.9487 20.4609H47.9558Z" fill="#BB1B0B"/>
<path d="M44.7729 20.4609L43.5073 17.756H46.9673L47.9558 20.4609H44.7729Z" fill="#BB1B0B"/>
<path d="M42.0952 98.8067L43.4748 95.0263H47.6463L46.6306 98.8067H42.0952Z" fill="#BB1B0B"/>
<path d="M42.0953 4.36162L40.6016 0.260742H45.528L46.6307 4.36162H42.0953Z" fill="#BB1B0B"/>
<path d="M41.3128 20.4609L39.7485 17.756H43.5072L44.7728 20.4609H41.3128Z" fill="#BB1B0B"/>
<path d="M41.1665 77.4659L42.6167 75.391L44.0779 77.9276L42.7525 80.2197L41.1665 77.4659Z" fill="#BB1B0B"/>
<path d="M37.2607 98.8067L39.0206 95.0263H43.4745L42.0949 98.8067H37.2607Z" fill="#BB1B0B"/>
<path d="M35.0718 31.2699L36.5003 28.8039L38.3199 30.6235L37.0109 32.8939L35.0718 31.2699Z" fill="#BB1B0B"/>
<path d="M31.7915 90.8494L33.9859 87.7099L36.2074 91.5555L34.1977 95.0263L31.7915 90.8494Z" fill="#BB1B0B"/>
<path d="M29.5645 86.9984L31.9381 84.1631L33.9858 87.7099L31.7914 90.8494L29.5645 86.9984Z" fill="#BB1B0B"/>
<path d="M29.271 56.8746L31.6718 56.4509L32.9373 58.6398L30.6452 59.259L29.271 56.8746Z" fill="#BB1B0B"/>
<path d="M26.6641 57.3417L29.2712 56.8746L30.6454 59.2591L28.1578 59.9217L26.6641 57.3417Z" fill="#BB1B0B"/>
<path d="M24.1924 38.8144L25.8219 35.9845L28.4997 37.2392L27.0005 39.841L24.1924 38.8144Z" fill="#BB1B0B"/>
<path d="M23.3398 51.5842L25.0671 48.5968L27.8046 48.8303L26.2132 51.5842H23.3398Z" fill="#BB1B0B"/>
<path d="M22.916 68.5417L25.8219 67.1838L27.4297 69.9702L24.665 71.5671L22.916 68.5417Z" fill="#BB1B0B"/>
<path d="M22.5088 41.7312L24.1926 38.8144L27.0007 39.841L25.4473 42.5242L22.5088 41.7312Z" fill="#BB1B0B"/>
<path d="M21.1396 65.462L24.1922 64.3539L25.8217 67.1838L22.9158 68.5417L21.1396 65.462Z" fill="#BB1B0B"/>
<path d="M19.3096 62.2953L22.5088 61.4426L24.1926 64.3539L21.14 65.462L19.3096 62.2953Z" fill="#BB1B0B"/>
<path d="M15.3442 55.4298L18.8585 55.1201L20.7378 58.3846L17.3865 58.9712L15.3442 55.4298Z" fill="#BB1B0B"/>
<path d="M12.5796 29.8142L14.8229 25.9252L18.3806 27.9783L16.3111 31.5523L12.5796 29.8142Z" fill="#BB1B0B"/>
<path d="M11.5205 55.7611L15.3444 55.4297L17.3867 58.9712L13.742 59.6175L11.5205 55.7611Z" fill="#BB1B0B"/>
<path d="M103.239 55.4298L105.46 51.5842H109.48L107.063 55.7611L103.239 55.4298Z" fill="#FAC250"/>
<path d="M101.197 58.9712L103.239 55.4297L107.063 55.7611L104.841 59.6175L101.197 58.9712Z" fill="#FAC250"/>
<path d="M100.203 27.9783L103.76 25.9252L106.009 29.8142L102.272 31.5523L100.203 27.9783Z" fill="#FAC250"/>
<path d="M101.767 51.5842L99.7246 48.0536L103.239 47.7386L105.46 51.5842H101.767Z" fill="#FAC250"/>
<path d="M97.8452 44.7946L101.197 44.1971L103.239 47.7386L99.7246 48.0536L97.8452 44.7946Z" fill="#FAC250"/>
<path d="M96.0747 41.7312L99.2739 40.873L101.197 44.1971L97.8454 44.7946L96.0747 41.7312Z" fill="#FAC250"/>
<path d="M94.3906 38.8144L97.4432 37.7064L99.2737 40.873L96.0744 41.7312L94.3906 38.8144Z" fill="#FAC250"/>
<path d="M92.7612 35.9845L95.6672 34.632L97.4433 37.7064L94.3907 38.8144L92.7612 35.9845Z" fill="#FAC250"/>
<path d="M91.6045 90.0835L93.8695 86.151L96.8786 89.1601L94.4181 93.4294L91.6045 90.0835Z" fill="#FAC250"/>
<path d="M88.5625 22.324L91.1099 19.782L93.0979 23.2311L90.393 25.5015L88.5625 22.324Z" fill="#FAC250"/>
<path d="M87.9053 75.5811L89.5402 72.7621L92.1745 74.598L90.393 77.6723L87.9053 75.5811Z" fill="#FAC250"/>
<path d="M86.6396 19.0053L89.0187 16.17L91.1099 19.782L88.5624 22.324L86.6396 19.0053Z" fill="#FAC250"/>
<path d="M86.2163 78.5033L87.9055 75.5811L90.3932 77.6723L88.5628 80.8443L86.2163 78.5033Z" fill="#FAC250"/>
<path d="M84.5923 15.4584L86.7921 12.3189L89.0191 16.1699L86.64 19.0052L84.5923 15.4584Z" fill="#FAC250"/>
<path d="M84.4565 81.5613L86.2164 78.5033L88.5629 80.8443L86.6401 84.1631L84.4565 81.5613Z" fill="#FAC250"/>
<path d="M79.5571 8.14199L81.3224 4.36157H86.5639L84.3858 8.14199H79.5571Z" fill="#FAC250"/>
<path d="M82.8486 35.0992L84.8909 33.6652L86.2543 36.0225L84.0979 37.2664L82.8486 35.0992Z" fill="#FAC250"/>
<path d="M77.9385 11.6183L79.5571 8.14203H84.3858L82.3761 11.6183H77.9385Z" fill="#FAC250"/>
<path d="M77.2705 20.4609L78.8348 17.756L80.7087 21.0095L78.9978 23.4538L77.2705 20.4609Z" fill="#B3B3B3"/>
<path d="M77.3193 73.0608L78.5849 70.8719L80.2578 72.5448L78.8836 74.9293L77.3193 73.0608Z" fill="#FAC250"/>
<path d="M75.9668 75.3964L77.3193 73.0608L78.8836 74.9293L77.417 77.4659L75.9668 75.3964Z" fill="#FAC250"/>
<path d="M73.0553 102.908L71.9526 98.8067H76.488L77.9817 102.908H73.0553Z" fill="#FAC250"/>
<path d="M72.6482 80.2197L71.5781 77.9276H74.5058L75.8311 80.2197H72.6482Z" fill="#FAC250"/>
<path d="M62.252 17.756L62.5072 14.8175H65.7825L65.2611 17.756H62.252Z" fill="#FAC250"/>
<path d="M62.2517 85.4178L62.0127 82.7074H64.7828L65.2608 85.4178H62.2517Z" fill="#FAC250"/>
<path d="M61.7954 22.9541L62.0127 20.4609H64.7828L64.3428 22.9541H61.7954Z" fill="#FAC250"/>
<path d="M59.2915 85.4178V82.7074H62.0127L62.2517 85.4178H59.2915Z" fill="#FAC250"/>
<path d="M56.3315 85.4178L56.5651 82.7074H59.2918V85.4178H56.3315Z" fill="#FAC250"/>
<path d="M49.6993 25.2408L48.8628 22.954H51.6166L52.2358 25.2408H49.6993Z" fill="#FAC250"/>
<path d="M46.9674 17.756L45.9028 14.8175H49.4334L50.2264 17.756H46.9674Z" fill="#FAC250"/>
<path d="M46.9997 25.2408L45.9297 22.954H48.8628L49.6992 25.2408H46.9997Z" fill="#FAC250"/>
<path d="M44.0778 25.2408L42.7524 22.954H45.9299L47 25.2408H44.0778Z" fill="#FAC250"/>
<path d="M42.1333 88.3563L43.5075 85.4178H46.9675L45.9029 88.3563H42.1333Z" fill="#FAC250"/>
<path d="M40.6016 102.908L42.0953 98.8067H46.6307L45.528 102.908H40.6016Z" fill="#FAC250"/>
<path d="M40.6451 11.6183L39.021 8.14203H43.4749L44.7351 11.6183H40.6451Z" fill="#FAC250"/>
<path d="M38.0542 88.3563L39.7543 85.4178H43.5076L42.1334 88.3563H38.0542Z" fill="#FAC250"/>
<path d="M36.5005 74.3698L38.3201 72.5448L39.6997 74.9293L37.9942 76.9607L36.5005 74.3698Z" fill="#FAC250"/>
<path d="M29.5806 40.7752L30.9656 38.3799L33.2306 39.439L31.9596 41.6389L29.5806 40.7752Z" fill="#FAC250"/>
<path d="M28.5054 65.9345L30.9659 64.7885L32.3292 67.1458L29.9828 68.4983L28.5054 65.9345Z" fill="#FAC250"/>
<path d="M28.1577 43.2466L29.5808 40.7752L31.9599 41.6389L30.6454 43.9093L28.1577 43.2466Z" fill="#FAC250"/>
<path d="M27.0005 63.3382L29.5805 62.3931L30.9656 64.7884L28.505 65.9345L27.0005 63.3382Z" fill="#FAC250"/>
<path d="M26.6641 45.8375L28.1578 43.2466L30.6454 43.9093L29.2712 46.2938L26.6641 45.8375Z" fill="#FAC250"/>
<path d="M26.2183 51.5842L27.8043 48.8303L30.3246 49.053L28.8635 51.5842H26.2183Z" fill="#FAC250"/>
<path d="M25.4854 79.9373L28.1903 77.6723L30.0208 80.8443L27.4733 83.3863L25.4854 79.9373Z" fill="#FAC250"/>
<path d="M25.4473 60.6496L28.1576 59.9217L29.5807 62.3931L27.0007 63.3382L25.4473 60.6496Z" fill="#FAC250"/>
<path d="M23.5518 26.5715L25.4854 23.2311L28.1904 25.4961L26.4088 28.5758L23.5518 26.5715Z" fill="#FAC250"/>
<path d="M23.5518 76.5968L26.4088 74.598L28.1904 77.6723L25.4854 79.9373L23.5518 76.5968Z" fill="#FAC250"/>
<path d="M23.8232 57.836L26.664 57.3417L28.1577 59.9217L25.4473 60.6495L23.8232 57.836Z" fill="#FAC250"/>
<path d="M21.6504 73.3052L24.6649 71.5671L26.4085 74.598L23.5515 76.5968L21.6504 73.3052Z" fill="#FAC250"/>
<path d="M21.6504 29.8631L23.5515 26.5715L26.4085 28.5758L24.6649 31.6012L21.6504 29.8631Z" fill="#FAC250"/>
<path d="M16.8164 51.5842H20.2112L22.0905 54.8377L18.8587 55.1202L16.8164 51.5842Z" fill="#FAC250"/>
<path d="M13.123 51.5842H16.8166L18.8588 55.1202L15.3446 55.4298L13.123 51.5842Z" fill="#FAC250"/>
<path d="M0 51.5842H4.74181L7.36529 56.125L2.8516 56.5215L0 51.5842Z" fill="#FAC250"/>
<path d="M109.48 51.5842L107.063 47.4073L111.224 47.0433L113.842 51.5842H109.48Z" fill="#788BAB"/>
<path d="M105.46 51.5841L103.239 47.7386L107.063 47.4072L109.48 51.5841H105.46Z" fill="#788BAB"/>
<path d="M102.755 63.2242L104.841 59.6121L108.801 60.3128L106.53 64.2399L102.755 63.2242Z" fill="#788BAB"/>
<path d="M100.762 66.6732L102.756 63.2242L106.531 64.2399L104.369 67.9823L100.762 66.6732Z" fill="#788BAB"/>
<path d="M98.834 70.0191L100.762 66.6732L104.369 67.9822L102.272 71.616L98.834 70.0191Z" fill="#788BAB"/>
<path d="M96.0366 20.7651L99.2358 18.0819L101.517 22.0307L98.1387 24.3989L96.0366 20.7651Z" fill="#788BAB"/>
<path d="M94.7603 45.3323L97.8454 44.7946L99.7248 48.0482L96.4929 48.3306L94.7603 45.3323Z" fill="#788BAB"/>
<path d="M93.875 17.0173L96.8787 14.0082L99.236 18.0819L96.0368 20.7651L93.875 17.0173Z" fill="#788BAB"/>
<path d="M90.7788 54.338L92.3703 51.5842H95.2436L93.5163 54.5824L90.7788 54.338Z" fill="#788BAB"/>
<path d="M90.3931 77.6723L92.1746 74.598L95.0317 76.5968L93.098 79.9427L90.3931 77.6723Z" fill="#788BAB"/>
<path d="M88.5625 80.8443L90.393 77.6723L93.0979 79.9427L91.1099 83.3863L88.5625 80.8443Z" fill="#788BAB"/>
<path d="M86.792 12.319L89.1873 8.90247L91.6044 13.0903L89.019 16.17L86.792 12.319Z" fill="#788BAB"/>
<path d="M86.6455 84.1631L88.5629 80.8443L91.1103 83.3863L89.0191 86.9984L86.6455 84.1631Z" fill="#788BAB"/>
<path d="M84.0977 65.9019L85.3524 63.7293L87.6173 64.7884L86.254 67.1458L84.0977 65.9019Z" fill="#788BAB"/>
<path d="M82.8486 68.0746L84.0979 65.9019L86.2543 67.1458L84.8909 69.5085L82.8486 68.0746Z" fill="#788BAB"/>
<path d="M82.1152 38.4125L84.0978 37.2664L85.3525 39.439L83.2667 40.4113L82.1152 38.4125Z" fill="#788BAB"/>
<path d="M81.5723 70.2744L82.8487 68.0746L84.891 69.5085L83.5114 71.8984L81.5723 70.2744Z" fill="#788BAB"/>
<path d="M79.5571 95.0263L77.9385 91.5555H82.3761L84.3858 95.0263H79.5571Z" fill="#788BAB"/>
<path d="M80.2632 30.6235L82.0828 28.7985L83.5113 31.2699L81.5722 32.8939L80.2632 30.6235Z" fill="#788BAB"/>
<path d="M80.2632 72.5448L81.5722 70.2744L83.5113 71.8984L82.0828 74.3698L80.2632 72.5448Z" fill="#788BAB"/>
<path d="M78.8892 74.9293L80.2634 72.5448L82.083 74.3698L80.5893 76.9607L78.8892 74.9293Z" fill="#788BAB"/>
<path d="M77.417 77.4659L78.889 74.9293L80.5891 76.9607L78.9976 79.72L77.417 77.4659Z" fill="#788BAB"/>
<path d="M75.1142 95.0263L73.8486 91.5555H77.9386L79.5573 95.0263H75.1142Z" fill="#788BAB"/>
<path d="M70.9371 95.0263L70.0083 91.5555H73.8485L75.114 95.0263H70.9371Z" fill="#788BAB"/>
<path d="M71.6106 85.4178L70.6274 82.7074H73.8104L75.0759 85.4178H71.6106Z" fill="#788BAB"/>
<path d="M68.3625 85.4178L67.6401 82.7074H70.6275L71.6107 85.4178H68.3625Z" fill="#788BAB"/>
<path d="M66.9556 95.0263L66.3418 91.5555H70.0081L70.937 95.0263H66.9556Z" fill="#788BAB"/>
<path d="M63.0937 95.0263L62.7896 91.5555H66.3418L66.9556 95.0263H63.0937Z" fill="#788BAB"/>
<path d="M59.2915 17.756V14.8175H62.507L62.2517 17.756H59.2915Z" fill="#788BAB"/>
<path d="M56.7876 22.9541L56.5649 20.4609H59.2916V22.9541H56.7876Z" fill="#788BAB"/>
<path d="M54.2402 22.9541L53.8057 20.4609H56.5649L56.7876 22.9541H54.2402Z" fill="#788BAB"/>
<path d="M51.6276 8.14199L50.9595 4.36157H55.1581L55.4895 8.14199H51.6276Z" fill="#788BAB"/>
<path d="M51.6168 22.9541L50.9487 20.4609H53.8058L54.2403 22.9541H51.6168Z" fill="#788BAB"/>
<path d="M49.4331 88.3563L50.2261 85.4178H53.3221L52.8061 88.3563H49.4331Z" fill="#788BAB"/>
<path d="M47.646 95.0263L48.5748 91.5555H52.2412L51.6274 95.0263H47.646Z" fill="#788BAB"/>
<path d="M47.6461 8.14199L46.6304 4.36157H50.9594L51.6275 8.14199H47.6461Z" fill="#788BAB"/>
<path d="M45.9351 80.2197L47.0051 77.9276H49.6992L48.8627 80.2197H45.9351Z" fill="#788BAB"/>
<path d="M43.4746 95.0263L44.7347 91.5555H48.5749L47.6515 95.0263H43.4746Z" fill="#788BAB"/>
<path d="M43.4748 8.14199L42.0952 4.36157H46.6306L47.6518 8.14199H43.4748Z" fill="#788BAB"/>
<path d="M42.7524 80.2197L44.0778 77.9276H47.0054L45.9354 80.2197H42.7524Z" fill="#788BAB"/>
<path d="M39.5859 23.4592L41.3132 20.4609L42.7526 22.9541L41.1665 25.7025L39.5859 23.4592Z" fill="#788BAB"/>
<path d="M37.9941 26.2131L39.5856 23.4592L41.1662 25.7025L39.6997 28.2445L37.9941 26.2131Z" fill="#788BAB"/>
<path d="M34.4854 65.9019L36.4679 64.7504L37.6248 66.7547L35.7346 68.0746L34.4854 65.9019Z" fill="#788BAB"/>
<path d="M31.7915 12.319L34.1977 8.14203L36.2074 11.6183L33.9859 15.4639L31.7915 12.319Z" fill="#788BAB"/>
<path d="M32.3291 36.0225L33.6924 33.6652L35.7347 35.0992L34.4855 37.2664L32.3291 36.0225Z" fill="#788BAB"/>
<path d="M30.9658 64.7884L33.2308 63.7293L34.4855 65.9019L32.3292 67.1458L30.9658 64.7884Z" fill="#788BAB"/>
<path d="M29.5645 16.1699L31.7914 12.3189L33.9858 15.4638L31.9435 19.0052L29.5645 16.1699Z" fill="#788BAB"/>
<path d="M27.4731 19.782L29.5643 16.17L31.9434 19.0053L30.0206 22.324L27.4731 19.782Z" fill="#788BAB"/>
<path d="M27.8047 48.8303L29.2712 46.2938L31.6774 46.7174L30.325 49.053L27.8047 48.8303Z" fill="#788BAB"/>
<path d="M26.4141 28.5758L28.1956 25.496L30.6779 27.5872L29.043 30.4117L26.4141 28.5758Z" fill="#788BAB"/>
<path d="M20.7378 58.3791L23.823 57.836L25.447 60.6496L22.5085 61.4371L20.7378 58.3791Z" fill="#788BAB"/>
<path d="M19.3477 18.0819L21.6996 14.0082L24.7087 17.0173L22.5469 20.7651L19.3477 18.0819Z" fill="#788BAB"/>
<path d="M18.8584 48.0482L20.7377 44.7946L23.8229 45.3323L22.0902 48.3306L18.8584 48.0482Z" fill="#788BAB"/>
<path d="M17.0664 22.0307L19.3477 18.0819L22.5469 20.7651L20.4503 24.3989L17.0664 22.0307Z" fill="#788BAB"/>
<path d="M16.3164 31.5523L18.3804 27.9729L21.6503 29.8631L19.7492 33.1547L16.3164 31.5523Z" fill="#788BAB"/>
<path d="M14.2144 35.1861L16.311 31.5523L19.7492 33.1546L17.8264 36.5005L14.2144 35.1861Z" fill="#788BAB"/>
<path d="M13.7476 59.6121L17.3867 58.9712L19.3095 62.2953L15.8333 63.2242L13.7476 59.6121Z" fill="#788BAB"/>
<path d="M9.78223 60.3128L13.7473 59.6121L15.8331 63.2242L12.0526 64.2399L9.78223 60.3128Z" fill="#788BAB"/>
<path d="M5.48047 61.0732L9.78232 60.3128L12.0527 64.2399L7.94643 65.3371L5.48047 61.0732Z" fill="#788BAB"/>
<path d="M111.224 56.125L113.842 51.5842H118.583L115.737 56.5215L111.224 56.125Z" fill="#495A7A"/>
<path d="M96.4927 54.8377L98.372 51.5842H101.772L99.7245 55.1202L96.4927 54.8377Z" fill="#495A7A"/>
<path d="M95.0317 76.5968L96.9328 73.3052L100.203 75.19L98.1386 78.7749L95.0317 76.5968Z" fill="#495A7A"/>
<path d="M94.7549 57.836L96.493 54.8377L99.7248 55.1202L97.8455 58.3791L94.7549 57.836Z" fill="#495A7A"/>
<path d="M93.1035 79.9427L95.0317 76.5968L98.1386 78.7749L96.0366 82.4086L93.1035 79.9427Z" fill="#495A7A"/>
<path d="M93.1362 60.6496L94.7549 57.836L97.8455 58.3791L96.0747 61.4371L93.1362 60.6496Z" fill="#495A7A"/>
<path d="M89.1875 94.2659L91.61 90.0836L94.4182 93.4294L91.7893 97.9757L89.1875 94.2659Z" fill="#495A7A"/>
<path d="M86.9116 56.4509L88.2587 54.1207L90.7844 54.338L89.3124 56.8746L86.9116 56.4509Z" fill="#495A7A"/>
<path d="M83.2671 62.757L84.4349 60.7365L86.6238 61.5295L85.3528 63.7293L83.2671 62.757Z" fill="#495A7A"/>
<path d="M82.4468 24.0023L84.4565 21.6124L86.2163 24.665L84.0654 26.8159L82.4468 24.0023Z" fill="#495A7A"/>
<path d="M82.1152 64.7504L83.2667 62.757L85.3525 63.7293L84.0978 65.9019L82.1152 64.7504Z" fill="#495A7A"/>
<path d="M80.7085 82.1642L82.4412 79.1606L84.4563 81.5613L82.5715 84.8149L80.7085 82.1642Z" fill="#495A7A"/>
<path d="M78.8345 17.756L80.5346 14.8175L82.5714 18.3481L80.7084 21.0096L78.8345 17.756Z" fill="#495A7A"/>
<path d="M75.1138 8.14199L76.488 4.36157H81.3221L79.5568 8.14199H75.1138Z" fill="#495A7A"/>
<path d="M76.4449 88.3563L75.0762 85.4178H78.8349L80.535 88.3563H76.4449Z" fill="#495A7A"/>
<path d="M73.8105 20.4609L75.0761 17.756H78.8348L77.2705 20.4609H73.8105Z" fill="#495A7A"/>
<path d="M71.5835 25.2408L72.6481 22.954H75.831L74.5057 25.2408H71.5835Z" fill="#495A7A"/>
<path d="M62.0131 82.7074L61.8013 80.2197H64.3433L64.7832 82.7074H62.0131Z" fill="#495A7A"/>
<path d="M61.5947 25.2408L61.8011 22.954H64.3431L63.9412 25.2408H61.5947Z" fill="#495A7A"/>
<path d="M61.8011 80.2197L61.5947 77.9276H63.9412L64.3431 80.2197H61.8011Z" fill="#495A7A"/>
<path d="M59.2969 25.2408V22.954H61.8009L61.5945 25.2408H59.2969Z" fill="#495A7A"/>
<path d="M53.3222 17.756L52.8062 14.8175H56.0706L56.3313 17.756H53.3222Z" fill="#495A7A"/>
<path d="M50.9487 82.7074L51.6168 80.2197H54.2403L53.8058 82.7074H50.9487Z" fill="#495A7A"/>
<path d="M45.5332 102.908L46.6304 98.8067H50.9594L50.237 102.908H45.5332Z" fill="#495A7A"/>
<path d="M45.9299 22.9486L44.7729 20.4609H47.9613L48.863 22.9486H45.9299Z" fill="#495A7A"/>
<path d="M39.5859 79.7091L41.1665 77.4659L42.7526 80.2197L41.3132 82.7074L39.5859 79.7091Z" fill="#495A7A"/>
<path d="M37.2611 4.36162L35.3491 0.260742H40.6015L42.0952 4.36162H37.2611Z" fill="#495A7A"/>
<path d="M33.9858 15.4638L36.2128 11.6182L38.0541 14.8175L36.0118 18.348L33.9858 15.4638Z" fill="#495A7A"/>
<path d="M32.0196 4.36162L29.646 0.260742H35.3492L37.2611 4.36162H32.0196Z" fill="#495A7A"/>
<path d="M26.7998 5.19266L29.646 0.260742L32.0196 4.36162L29.4016 8.90246L26.7998 5.19266Z" fill="#495A7A"/>
<path d="M28.1577 59.9217L30.6454 59.2591L31.9599 61.5295L29.5808 62.3931L28.1577 59.9217Z" fill="#495A7A"/>
<path d="M24.1709 9.74433L26.7998 5.19263L29.4016 8.90243L26.979 13.0902L24.1709 9.74433Z" fill="#495A7A"/>
<path d="M21.6992 89.1601L24.7083 86.151L26.9788 90.0835L24.1706 93.4294L21.6992 89.1601Z" fill="#495A7A"/>
<path d="M19.3477 85.0864L22.5469 82.4032L24.7087 86.151L21.6996 89.1602L19.3477 85.0864Z" fill="#495A7A"/>
<path d="M17.8267 66.6732L21.14 65.462L22.9161 68.5363L19.7549 70.0191L17.8267 66.6732Z" fill="#495A7A"/>
<path d="M17.0718 81.1377L20.4502 78.7749L22.5469 82.4032L19.3476 85.0865L17.0718 81.1377Z" fill="#495A7A"/>
<path d="M15.3496 47.7386L17.3919 44.1971L20.7432 44.7946L18.8639 48.0482L15.3496 47.7386Z" fill="#495A7A"/>
<path d="M2.85156 46.6523L5.48047 42.1006L9.78232 42.861L7.36524 47.0433L2.85156 46.6523Z" fill="#495A7A"/>
<path d="M0 51.5842L2.8516 46.6523L7.36529 47.0433L4.74724 51.5842H0Z" fill="#495A7A"/>
<path d="M108.801 42.861L113.108 42.1006L115.737 46.6523L111.223 47.0433L108.801 42.861Z" fill="#272245"/>
<path d="M106.53 38.9285L110.642 37.8313L113.108 42.1006L108.801 42.861L106.53 38.9285Z" fill="#272245"/>
<path d="M106.53 64.2399L108.801 60.3128L113.108 61.0732L110.642 65.3371L106.53 64.2399Z" fill="#272245"/>
<path d="M104.374 35.1861L108.29 33.7576L110.642 37.8313L106.53 38.9285L104.374 35.1861Z" fill="#272245"/>
<path d="M104.369 67.9823L106.53 64.2399L110.642 65.3371L108.29 69.4108L104.369 67.9823Z" fill="#272245"/>
<path d="M102.272 71.616L104.369 67.9822L108.29 69.4108L106.009 73.3595L102.272 71.616Z" fill="#272245"/>
<path d="M100.203 75.19L102.272 71.616L106.009 73.3596L103.76 77.2486L100.203 75.19Z" fill="#272245"/>
<path d="M99.2793 40.873L102.756 39.9442L104.841 43.5616L101.197 44.1971L99.2793 40.873Z" fill="#272245"/>
<path d="M101.512 81.1376L98.1387 78.7749L100.203 75.19L103.76 77.2486L101.517 81.1376H101.512Z" fill="#272245"/>
<path d="M97.4434 65.462L99.2793 62.2953L102.755 63.2242L100.762 66.6732L97.4434 65.462Z" fill="#272245"/>
<path d="M97.4434 37.7009L100.762 36.5005L102.755 39.9442L99.2793 40.873L97.4434 37.7009Z" fill="#272245"/>
<path d="M95.6675 34.6321L98.8341 33.1547L100.762 36.5005L97.4436 37.7009L95.6675 34.6321Z" fill="#272245"/>
<path d="M93.9185 31.6012L96.933 29.8631L98.8341 33.1547L95.6674 34.6321L93.9185 31.6012Z" fill="#272245"/>
<path d="M92.1748 28.5704L95.0318 26.5715L96.9329 29.8631L93.9184 31.6012L92.1748 28.5704Z" fill="#272245"/>
<path d="M91.5825 39.8355L94.3907 38.8144L96.0799 41.7257L93.136 42.5188L91.5825 39.8355Z" fill="#272245"/>
<path d="M91.5825 63.3328L93.136 60.6495L96.0799 61.4371L94.3907 64.3539L91.5825 63.3328Z" fill="#272245"/>
<path d="M89.312 46.2938L91.9246 45.8375L93.5161 48.5913L90.784 48.8303L89.312 46.2938Z" fill="#272245"/>
<path d="M87.938 43.9093L90.4311 43.2412L91.9248 45.8375L89.3122 46.2938L87.938 43.9093Z" fill="#272245"/>
<path d="M87.938 59.2591L89.3122 56.8746L91.9248 57.3363L90.4311 59.9217L87.938 59.2591Z" fill="#272245"/>
<path d="M86.6235 41.6389L89.0026 40.7752L90.4311 43.2412L87.938 43.9093L86.6235 41.6389Z" fill="#272245"/>
<path d="M86.6235 61.5295L87.938 59.2591L90.4311 59.9217L89.0026 62.3931L86.6235 61.5295Z" fill="#272245"/>
<path d="M85.3525 39.439L87.6175 38.3799L89.0026 40.7752L86.629 41.6389L85.3525 39.439Z" fill="#272245"/>
<path d="M83.2342 102.908L81.3223 98.8013H86.5692L88.9374 102.908H83.2342Z" fill="#272245"/>
<path d="M82.376 91.5501L84.5975 87.7099L86.7973 90.8494L84.3857 95.0263L82.376 91.5501Z" fill="#272245"/>
<path d="M80.5889 26.2131L82.4465 24.0024L84.0651 26.816L82.0826 28.7985L80.5889 26.2131Z" fill="#272245"/>
<path d="M76.4883 4.36162L77.982 0.260742H83.2344L81.3224 4.36162H76.4883Z" fill="#272245"/>
<path d="M75.0762 17.756L76.4449 14.8175H80.535L78.8349 17.756H75.0762Z" fill="#272245"/>
<path d="M77.3193 30.1075L78.8891 28.239L80.2633 30.6235L78.5849 32.2964L77.3193 30.1075Z" fill="#272245"/>
<path d="M75.9668 27.7719L77.417 25.7025L78.889 28.239L77.3193 30.1075L75.9668 27.7719Z" fill="#272245"/>
<path d="M71.9526 4.36162L73.0553 0.260742H77.9817L76.488 4.36162H71.9526Z" fill="#272245"/>
<path d="M71.6104 17.756L72.6804 14.8175H76.4445L75.0757 17.756H71.6104Z" fill="#272245"/>
<path d="M67.6235 4.36162L68.3459 0.260742H73.0552L71.9525 4.36162H67.6235Z" fill="#272245"/>
<path d="M68.3623 17.756L69.1499 14.8175H72.6804L71.6104 17.756H68.3623Z" fill="#272245"/>
<path d="M69.1499 88.3509L68.3623 85.4124H71.6104L72.6804 88.3509H69.1499Z" fill="#272245"/>
<path d="M66.9663 22.9486L67.6398 20.4609H70.6272L69.7201 22.9486H66.9663Z" fill="#272245"/>
<path d="M65.7827 88.3509L65.2612 85.4124H68.3627L69.1503 88.3509H65.7827Z" fill="#272245"/>
<path d="M63.4253 4.36162L63.7838 0.25531H68.3463L67.6239 4.36162H63.4253Z" fill="#272245"/>
<path d="M62.5072 88.3509L62.252 85.4124H65.2611L65.7825 88.3509H62.5072Z" fill="#272245"/>
<path d="M59.2969 4.36162V0.25531H63.7834L63.4249 4.36162H59.2969Z" fill="#272245"/>
<path d="M55.4897 95.0263L55.7939 91.5501H59.2973V95.0263H55.4897Z" fill="#272245"/>
<path d="M56.7876 80.2197L56.9886 77.9221H59.297V80.2197H56.7876Z" fill="#272245"/>
<path d="M55.7939 11.6183L55.4897 8.14203H59.2973V11.6183H55.7939Z" fill="#272245"/>
<path d="M55.1583 4.36162L54.7998 0.25531H59.2972V4.36162H55.1583Z" fill="#272245"/>
<path d="M54.2402 80.2197L54.6476 77.9221H56.9886L56.7877 80.2197H54.2402Z" fill="#272245"/>
<path d="M52.2412 11.6183L51.6274 8.14203H55.4893L55.7935 11.6183H52.2412Z" fill="#272245"/>
<path d="M51.6167 80.2197L52.2359 77.9221H54.6475L54.2402 80.2197H51.6167Z" fill="#272245"/>
<path d="M48.5752 11.6183L47.6519 8.14203H51.6278L52.2416 11.6183H48.5752Z" fill="#272245"/>
<path d="M41.313 82.7074L42.7524 80.2197H45.9353L44.7729 82.7074H41.313Z" fill="#272245"/>
<path d="M41.1665 25.7024L42.7525 22.9486L44.0779 25.2408L42.6167 27.7773L41.1665 25.7024Z" fill="#272245"/>
<path d="M39.7543 17.756L38.0542 14.8175H42.1388L43.5076 17.756H39.7543Z" fill="#272245"/>
<path d="M38.0542 14.8175L36.2129 11.6182H40.6505L42.1388 14.8175H38.0542Z" fill="#272245"/>
<path d="M37.8745 21.0095L39.7539 17.756L41.3127 20.4609L39.5855 23.4538L37.8745 21.0095Z" fill="#272245"/>
<path d="M34.2031 95.0263L36.2128 91.5501H40.645L39.0264 95.0263H34.2031Z" fill="#272245"/>
<path d="M37.0112 32.894L38.3257 30.6181L40.0041 32.3019L38.7928 34.3931L37.0112 32.894Z" fill="#272245"/>
<path d="M35.7402 68.0746L37.625 66.7547L38.7928 68.7753L37.0112 70.2744L35.7402 68.0746Z" fill="#272245"/>
<path d="M35.7402 35.0992L37.0112 32.8939L38.7928 34.393L37.625 36.419L35.7402 35.0992Z" fill="#272245"/>
<path d="M34.127 81.5613L36.1475 79.1606L37.8748 82.1588L36.0117 84.8149L34.127 81.5613Z" fill="#272245"/>
<path d="M29.6514 102.908L32.0196 98.8013H37.2665L35.3491 102.908H29.6514Z" fill="#272245"/>
<path d="M33.6924 69.5031L35.7401 68.0746L37.0111 70.2744L35.072 71.893L33.6924 69.5031Z" fill="#272245"/>
<path d="M32.3672 78.5033L34.5181 76.347L36.1476 79.1605L34.1325 81.5613L32.3672 78.5033Z" fill="#272245"/>
<path d="M32.3672 24.665L34.1325 21.607L36.1422 24.0023L34.5181 26.8159L32.3672 24.665Z" fill="#272245"/>
<path d="M30.6777 75.5811L32.9699 73.6637L34.5179 76.347L32.367 78.5033L30.6777 75.5811Z" fill="#272245"/>
<path d="M30.6777 27.5818L32.367 24.665L34.5179 26.816L32.9699 29.5046L30.6777 27.5818Z" fill="#272245"/>
<path d="M29.0483 72.7566L31.4654 71.062L32.97 73.6637L30.6833 75.5811L29.0483 72.7566Z" fill="#272245"/>
<path d="M29.043 30.4117L30.6833 27.5818L32.97 29.5046L31.4655 32.1063L29.043 30.4117Z" fill="#272245"/>
<path d="M26.7998 97.9757L29.4016 94.2659L32.0196 98.8013L29.6514 102.908L26.7998 97.9757Z" fill="#272245"/>
<path d="M27.4351 69.9648L29.9825 68.4983L31.4653 71.062L29.0483 72.7567L27.4351 69.9648Z" fill="#272245"/>
<path d="M27.4351 33.1981L29.0428 30.4117L31.4653 32.1063L29.9825 34.6646L27.4351 33.1981Z" fill="#272245"/>
<path d="M25.8271 67.1838L28.5049 65.9345L29.9823 68.4982L27.4349 69.9648L25.8271 67.1838Z" fill="#272245"/>
<path d="M24.1924 64.3485L27.006 63.3328L28.5051 65.9345L25.8273 67.1838L24.1924 64.3485Z" fill="#272245"/>
<path d="M23.3452 51.5842H26.2185L27.8046 54.338L25.0725 54.577L23.3452 51.5842Z" fill="#272245"/>
<path d="M15.833 39.9442L17.8264 36.5005L21.1397 37.7009L19.3147 40.8784L15.833 39.9442Z" fill="#272245"/>
<path d="M13.7476 43.5562L15.8333 39.9442L19.315 40.8784L17.3922 44.1971L13.7476 43.5562Z" fill="#272245"/>
<path d="M12.5796 73.3596L16.3166 71.616L18.3806 75.19L14.8229 77.2486L12.5796 73.3596Z" fill="#272245"/>
<path d="M11.5205 47.4072L13.7475 43.5562L17.3921 44.1971L15.3498 47.7386L11.5205 47.4072Z" fill="#272245"/>
<path d="M10.2983 69.4108L14.22 67.9822L16.3166 71.616L12.5796 73.3595L10.2983 69.4108Z" fill="#272245"/>
<path d="M9.10889 51.5841L11.5205 47.4072L15.3498 47.7386L13.1283 51.5841H9.10889Z" fill="#272245"/>
<path d="M7.94629 37.8313L10.2982 33.7576L14.2144 35.1861L12.0526 38.9339L7.94629 37.8313Z" fill="#272245"/>
<path d="M289.924 88.1662H131.614V102.712H289.924V88.1662Z" fill="#E6E6E6"/>
<path d="M146.002 100.219L146.23 90.5344H147.099L148.924 98.9371L150.782 90.5344H151.651L151.879 100.219H151.162L150.977 92.506L149.207 100.219H148.647L146.904 92.5169L146.719 100.219H146.002Z" fill="#4D4D4D"/>
<path d="M158.267 100.328C158.044 100.328 157.859 100.268 157.707 100.148C157.555 100.029 157.441 99.8605 157.36 99.6486C157.278 99.4314 157.24 99.1707 157.24 98.8611V93.3154H158.082V98.671C158.082 99.0294 158.131 99.2793 158.234 99.4259C158.337 99.5672 158.495 99.6432 158.707 99.6432C158.902 99.6432 159.103 99.578 159.304 99.4531C159.505 99.3282 159.695 99.1598 159.869 98.9643V93.3208H160.7V100.23H159.869V99.464C159.657 99.7193 159.413 99.9257 159.141 100.094C158.875 100.246 158.582 100.328 158.267 100.328Z" fill="#4D4D4D"/>
<path d="M166.164 100.219V90.5344H166.995V100.219H166.164Z" fill="#4D4D4D"/>
<path d="M173.964 100.306C173.644 100.306 173.399 100.241 173.231 100.11C173.062 99.98 172.943 99.8007 172.878 99.5726C172.813 99.3445 172.78 99.0837 172.78 98.7904V93.8911H171.971V93.3154H172.78V91.1753H173.611V93.3154H174.708V93.8911H173.611V98.709C173.611 99.0457 173.649 99.2793 173.72 99.4205C173.79 99.5617 173.948 99.6323 174.192 99.6323C174.263 99.6323 174.339 99.6269 174.426 99.616C174.513 99.6052 174.594 99.5889 174.67 99.5726V100.241C174.556 100.262 174.437 100.284 174.317 100.295C174.198 100.306 174.078 100.306 173.964 100.306Z" fill="#4D4D4D"/>
<path d="M179.738 92.354V91.1699H180.569V92.354H179.738ZM179.738 100.219V93.3099H180.569V100.219H179.738Z" fill="#4D4D4D"/>
<path d="M187.484 100.328C186.919 100.328 186.517 100.105 186.267 99.6595C186.017 99.2141 185.897 98.47 185.897 97.438V96.1561C185.897 95.5532 185.941 95.0263 186.022 94.5918C186.104 94.1518 186.261 93.8151 186.484 93.5706C186.707 93.3262 187.027 93.2067 187.445 93.2067C187.706 93.2067 187.929 93.2665 188.124 93.3914C188.32 93.5163 188.477 93.6521 188.608 93.8042V90.5398H189.439V100.224H188.608V99.7355C188.477 99.8876 188.32 100.023 188.135 100.148C187.951 100.273 187.733 100.328 187.484 100.328ZM187.657 99.6323C187.842 99.6323 188.01 99.5889 188.179 99.502C188.342 99.4151 188.488 99.3064 188.619 99.1815V94.3745C188.505 94.2605 188.363 94.1518 188.195 94.0432C188.027 93.9346 187.842 93.8802 187.636 93.8802C187.272 93.8802 187.027 94.0486 186.913 94.3908C186.794 94.7276 186.734 95.2219 186.734 95.8682V97.5086C186.734 97.9703 186.761 98.3613 186.81 98.6818C186.859 99.0023 186.951 99.2413 187.082 99.3988C187.212 99.5563 187.402 99.6323 187.657 99.6323Z" fill="#4D4D4D"/>
<path d="M194.876 92.354V91.1699H195.707V92.354H194.876ZM194.876 100.219V93.3099H195.707V100.219H194.876Z" fill="#4D4D4D"/>
<path d="M201.16 100.219V93.3099H201.937V94.016C202.16 93.7444 202.399 93.5381 202.665 93.4023C202.931 93.261 203.202 93.1904 203.485 93.1904C203.713 93.1904 203.925 93.2556 204.12 93.3805C204.316 93.5055 204.452 93.7445 204.539 94.0866C204.767 93.7933 205.017 93.5706 205.294 93.4186C205.565 93.2665 205.859 93.1904 206.163 93.1904C206.353 93.1904 206.532 93.2393 206.706 93.3316C206.88 93.424 207.015 93.5924 207.124 93.8205C207.233 94.0541 207.282 94.3691 207.282 94.7656V100.219H206.505V94.7928C206.505 94.3854 206.44 94.1192 206.315 93.9834C206.19 93.8477 206.032 93.7879 205.842 93.7879C205.63 93.7879 205.419 93.8531 205.201 93.978C204.989 94.1029 204.788 94.2822 204.598 94.5049C204.604 94.5429 204.609 94.5864 204.615 94.6298C204.62 94.6733 204.62 94.7221 204.62 94.7656V100.219H203.833V94.7928C203.833 94.3854 203.767 94.1192 203.642 93.9834C203.517 93.8531 203.36 93.7879 203.17 93.7879C202.963 93.7879 202.757 93.8531 202.54 93.978C202.328 94.1029 202.127 94.2768 201.937 94.494V100.219H201.16Z" fill="#4D4D4D"/>
<path d="M214.212 100.328C213.799 100.328 213.463 100.241 213.202 100.072C212.941 99.9039 212.746 99.616 212.621 99.2195C212.496 98.823 212.431 98.2907 212.431 97.6281V95.8845C212.431 95.2001 212.496 94.6624 212.626 94.2768C212.757 93.8911 212.952 93.6141 213.218 93.4511C213.484 93.2882 213.821 93.2067 214.223 93.2067C214.685 93.2067 215.038 93.3099 215.282 93.5163C215.527 93.7227 215.695 94.0378 215.793 94.456C215.885 94.8742 215.934 95.412 215.934 96.0638V96.683H213.267V97.8888C213.267 98.3342 213.3 98.6872 213.365 98.948C213.43 99.2087 213.533 99.3933 213.675 99.502C213.816 99.616 213.995 99.6704 214.218 99.6704C214.386 99.6704 214.538 99.6378 214.674 99.5672C214.81 99.502 214.918 99.3662 215 99.1707C215.081 98.9751 215.119 98.6981 215.119 98.3396V97.8616H215.929V98.2418C215.929 98.8719 215.804 99.377 215.559 99.7518C215.309 100.137 214.859 100.328 214.212 100.328ZM213.267 96.1778H215.114V95.6021C215.114 95.2381 215.092 94.9231 215.06 94.6624C215.022 94.4017 214.94 94.2061 214.815 94.0649C214.69 93.9237 214.489 93.8585 214.218 93.8585C213.99 93.8585 213.805 93.9128 213.664 94.016C213.522 94.1192 213.425 94.3039 213.359 94.5701C213.3 94.8362 213.267 95.2164 213.267 95.7107V96.1778Z" fill="#4D4D4D"/>
<path d="M221.116 100.219V93.3099H221.947V94.0269C222.159 93.7879 222.398 93.5924 222.664 93.4349C222.93 93.2773 223.218 93.2013 223.533 93.2013C223.756 93.2013 223.94 93.261 224.092 93.3751C224.244 93.4892 224.358 93.6576 224.434 93.8748C224.51 94.0921 224.549 94.3582 224.549 94.6678V100.214H223.717V94.8579C223.717 94.4995 223.669 94.2442 223.565 94.0975C223.462 93.9509 223.305 93.8748 223.093 93.8748C222.903 93.8748 222.707 93.9346 222.512 94.0541C222.316 94.1736 222.126 94.3311 221.952 94.5212V100.214H221.116V100.219Z" fill="#4D4D4D"/>
<path d="M231.338 100.328C230.811 100.328 230.393 100.148 230.084 99.7953C229.774 99.4422 229.595 98.9643 229.546 98.3668L230.241 98.1386C230.285 98.6709 230.404 99.062 230.594 99.3064C230.784 99.5509 231.05 99.6704 231.393 99.6704C231.681 99.6704 231.903 99.5835 232.061 99.4151C232.218 99.2413 232.294 99.0023 232.294 98.6927C232.294 98.47 232.229 98.2418 232.099 98.0191C231.968 97.791 231.767 97.5575 231.496 97.3076L230.594 96.4929C230.295 96.2321 230.073 95.966 229.921 95.7053C229.769 95.4446 229.693 95.1295 229.693 94.7602C229.693 94.4234 229.758 94.1464 229.894 93.9183C230.029 93.6901 230.209 93.5163 230.448 93.3914C230.681 93.2665 230.958 93.2067 231.268 93.2067C231.767 93.2067 232.148 93.3751 232.408 93.7173C232.669 94.0541 232.81 94.494 232.832 95.0263L232.24 95.2273C232.224 94.9177 232.18 94.657 232.104 94.456C232.028 94.255 231.925 94.1029 231.789 94.0052C231.653 93.9074 231.496 93.8639 231.306 93.8639C231.056 93.8639 230.85 93.94 230.697 94.0866C230.54 94.2333 230.464 94.4397 230.464 94.7004C230.464 94.9068 230.502 95.0915 230.578 95.249C230.654 95.4065 230.795 95.5858 231.002 95.7867L231.936 96.6612C232.121 96.8296 232.294 97.0089 232.463 97.199C232.631 97.3891 232.767 97.6063 232.875 97.8399C232.984 98.0735 233.033 98.3505 233.033 98.6709C233.033 99.0294 232.962 99.3282 232.821 99.5726C232.68 99.817 232.484 100.002 232.235 100.132C231.985 100.262 231.681 100.328 231.338 100.328Z" fill="#4D4D4D"/>
<path d="M238.111 92.354V91.1699H238.942V92.354H238.111ZM238.111 100.219V93.3099H238.942V100.219H238.111Z" fill="#4D4D4D"/>
<path d="M246.031 100.328C245.58 100.328 245.232 100.224 244.977 100.023C244.722 99.8224 244.543 99.5237 244.434 99.1381C244.325 98.7524 244.276 98.2799 244.276 97.7204V95.8085C244.276 95.249 244.331 94.7765 244.434 94.3908C244.543 94.0052 244.722 93.7119 244.977 93.5055C245.232 93.3045 245.585 93.2013 246.031 93.2013C246.492 93.2013 246.851 93.3045 247.101 93.5055C247.351 93.7064 247.53 94.0052 247.639 94.3908C247.747 94.7765 247.796 95.249 247.796 95.8085V97.7204C247.796 98.2799 247.742 98.7524 247.639 99.1381C247.53 99.5237 247.356 99.817 247.101 100.023C246.851 100.224 246.492 100.328 246.031 100.328ZM246.031 99.6704C246.319 99.6704 246.53 99.5889 246.666 99.4314C246.802 99.2739 246.884 99.0457 246.911 98.7579C246.943 98.4645 246.954 98.1386 246.954 97.7693V95.7596C246.954 95.3848 246.938 95.0535 246.911 94.771C246.878 94.4886 246.797 94.2659 246.666 94.1029C246.536 93.94 246.324 93.8585 246.031 93.8585C245.737 93.8585 245.531 93.94 245.401 94.1029C245.27 94.2659 245.189 94.4886 245.162 94.771C245.129 95.0535 245.118 95.3848 245.118 95.7596V97.7693C245.118 98.1386 245.135 98.4645 245.162 98.7579C245.194 99.0512 245.27 99.2739 245.401 99.4314C245.531 99.5889 245.743 99.6704 246.031 99.6704Z" fill="#4D4D4D"/>
<path d="M253 100.219V93.3099H253.831V94.0269C254.042 93.7879 254.281 93.5924 254.548 93.4349C254.814 93.2773 255.102 93.2013 255.417 93.2013C255.639 93.2013 255.824 93.261 255.976 93.3751C256.128 93.4892 256.242 93.6576 256.318 93.8748C256.394 94.0921 256.432 94.3582 256.432 94.6678V100.214H255.601V94.8579C255.601 94.4995 255.552 94.2442 255.449 94.0975C255.346 93.9509 255.188 93.8748 254.977 93.8748C254.787 93.8748 254.591 93.9346 254.395 94.0541C254.2 94.1736 254.01 94.3311 253.836 94.5212V100.214H253V100.219Z" fill="#4D4D4D"/>
<path d="M262.858 100.328C262.592 100.328 262.358 100.257 262.163 100.116C261.967 99.9745 261.81 99.7899 261.701 99.5563C261.592 99.3227 261.538 99.062 261.538 98.785C261.538 98.4319 261.587 98.1332 261.679 97.8888C261.777 97.6444 261.929 97.4217 262.136 97.2261C262.342 97.0306 262.619 96.8405 262.956 96.6504C263.292 96.4657 263.705 96.2539 264.194 96.0203V95.5315C264.194 95.1078 264.167 94.7765 264.118 94.532C264.069 94.2876 263.982 94.1138 263.868 94.0106C263.749 93.9074 263.586 93.8531 263.374 93.8531C263.2 93.8531 263.043 93.8911 262.907 93.9617C262.771 94.0323 262.657 94.1573 262.576 94.3256C262.494 94.4995 262.451 94.733 262.451 95.0372V95.2762L261.63 95.2653C261.636 94.5646 261.783 94.0432 262.06 93.7064C262.337 93.3697 262.793 93.1959 263.423 93.1959C264.015 93.1959 264.433 93.3805 264.672 93.7499C264.911 94.1192 265.031 94.695 265.031 95.4771V98.8393C265.031 98.9588 265.036 99.1109 265.041 99.301C265.047 99.4911 265.058 99.6649 265.063 99.8333C265.069 100.002 265.08 100.127 265.085 100.214H264.341C264.325 100.061 264.303 99.8931 264.27 99.7029C264.238 99.5183 264.221 99.3662 264.216 99.2521C264.124 99.5291 263.961 99.779 263.732 99.9963C263.499 100.219 263.206 100.328 262.858 100.328ZM263.119 99.5889C263.287 99.5889 263.439 99.5454 263.575 99.4585C263.711 99.3716 263.836 99.263 263.939 99.1435C264.047 99.0186 264.129 98.8936 264.189 98.7687V96.6178C263.863 96.7916 263.58 96.9545 263.352 97.0958C263.119 97.237 262.934 97.3782 262.787 97.514C262.641 97.6498 262.538 97.8019 262.467 97.9757C262.396 98.1495 262.364 98.3505 262.364 98.5786C262.364 98.9425 262.44 99.2087 262.592 99.3608C262.749 99.5074 262.923 99.5889 263.119 99.5889Z" fill="#4D4D4D"/>
<path d="M270.408 100.219V90.5344H271.239V100.219H270.408Z" fill="#4D4D4D"/>
<path d="M290.005 71.415H131.614V86.1293H290.005V71.415Z" fill="#E6E6E6"/>
<path d="M138.012 73.403H137.295V84.1413H138.012V73.403Z" fill="#4D4D4D"/>
<path d="M140.733 84.1359V76.4773H141.44V77.2975C141.678 77.015 141.95 76.7869 142.26 76.6131C142.569 76.4447 142.901 76.3524 143.259 76.3524C143.487 76.3524 143.699 76.4067 143.878 76.5153C144.058 76.6294 144.204 76.8032 144.313 77.0476C144.421 77.2921 144.47 77.6179 144.47 78.0253V84.1359H143.764V78.1068C143.764 77.6397 143.688 77.3192 143.547 77.1508C143.4 76.9824 143.205 76.901 142.955 76.901C142.705 76.901 142.439 76.9824 142.178 77.1345C141.917 77.2866 141.673 77.4985 141.44 77.7537V84.1413L140.733 84.1359Z" fill="#4D4D4D"/>
<path d="M148.62 84.2554C148.018 84.2554 147.545 84.0599 147.186 83.6634C146.828 83.2668 146.632 82.7345 146.578 82.0665L147.176 81.8981C147.219 82.5444 147.366 83.0116 147.621 83.294C147.871 83.5765 148.218 83.7231 148.653 83.7231C149.044 83.7231 149.343 83.6145 149.555 83.3972C149.766 83.1799 149.875 82.8758 149.875 82.4738C149.875 82.2022 149.783 81.9144 149.604 81.6211C149.424 81.3278 149.136 81.0127 148.751 80.6868L147.86 79.9318C147.48 79.6059 147.197 79.2909 147.024 78.9976C146.85 78.7043 146.757 78.3621 146.757 77.9873C146.757 77.6343 146.833 77.3355 146.975 77.0965C147.116 76.8575 147.328 76.6783 147.583 76.5479C147.844 76.4176 148.148 76.3578 148.49 76.3578C149.066 76.3578 149.495 76.5371 149.777 76.901C150.06 77.2649 150.212 77.7483 150.234 78.3621L149.718 78.5196C149.707 78.1177 149.652 77.8081 149.555 77.5636C149.451 77.3246 149.316 77.1508 149.142 77.0476C148.968 76.9444 148.767 76.8901 148.539 76.8901C148.202 76.8901 147.931 76.977 147.724 77.1508C147.518 77.3192 147.415 77.5745 147.415 77.9113C147.415 78.1937 147.469 78.4381 147.578 78.6445C147.692 78.8509 147.893 79.0899 148.197 79.3669L149.115 80.1763C149.343 80.3718 149.571 80.5782 149.777 80.8009C149.989 81.0236 150.168 81.268 150.299 81.5342C150.429 81.8003 150.505 82.1262 150.505 82.4956C150.505 82.8649 150.424 83.1854 150.272 83.4461C150.12 83.7068 149.897 83.9078 149.62 84.049C149.343 84.1902 149.012 84.2608 148.631 84.2608V84.2554H148.62Z" fill="#4D4D4D"/>
<path d="M153.704 84.2554C153.476 84.2554 153.264 84.2011 153.085 84.0924C152.906 83.9784 152.759 83.8046 152.651 83.5601C152.542 83.3157 152.493 82.9898 152.493 82.5824V76.4719H153.199V82.501C153.199 82.9681 153.275 83.2886 153.417 83.4569C153.563 83.6253 153.759 83.7068 154.009 83.7068C154.28 83.7068 154.557 83.6199 154.829 83.4461C155.1 83.2777 155.356 83.0496 155.589 82.7726V76.4664H156.279V84.1305H155.589V83.2288C155.345 83.5384 155.057 83.7828 154.736 83.9675C154.411 84.1522 154.068 84.2445 153.704 84.2445V84.2554Z" fill="#4D4D4D"/>
<path d="M162.096 74.2503H162.759V75.4725H162.096V74.2503ZM159.266 84.1413V76.9716H158.229V76.4827H159.266V75.4507C159.266 75.114 159.294 74.8152 159.348 74.5545C159.402 74.2938 159.516 74.0928 159.706 73.9353C159.891 73.7832 160.174 73.7126 160.554 73.7126C160.652 73.7126 160.76 73.7235 160.89 73.7398C161.021 73.7561 161.124 73.7832 161.216 73.805V74.3372C161.124 74.321 161.037 74.3047 160.939 74.2884C160.842 74.2721 160.749 74.2666 160.662 74.2666C160.364 74.2666 160.174 74.3535 160.092 74.5165C160.011 74.6794 159.973 74.989 159.973 75.4344V76.4773H162.759V84.1413H162.053V76.9716H159.967V84.1413H159.266Z" fill="#4D4D4D"/>
<path d="M167.207 84.2554C166.631 84.2554 166.202 84.1196 165.931 83.848C165.659 83.5764 165.475 83.218 165.393 82.7671C165.312 82.3163 165.263 81.8112 165.263 81.2517V79.4484C165.263 78.6989 165.322 78.0959 165.431 77.6342C165.545 77.178 165.746 76.8521 166.029 76.6511C166.311 76.4502 166.702 76.347 167.196 76.347C167.729 76.347 168.131 76.4556 168.397 76.6729C168.668 76.8901 168.848 77.1834 168.934 77.5636C169.027 77.9439 169.07 78.3621 169.07 78.8292V79.1334H168.408V78.8292C168.408 78.3078 168.364 77.9058 168.277 77.6288C168.19 77.3518 168.065 77.1563 167.886 77.0476C167.712 76.9336 167.479 76.8847 167.196 76.8847C166.849 76.8847 166.588 76.9662 166.414 77.1291C166.24 77.2921 166.115 77.5528 166.056 77.9167C165.991 78.2806 165.963 78.764 165.963 79.3778V81.3658C165.963 82.1968 166.045 82.7997 166.208 83.1691C166.371 83.5439 166.702 83.7231 167.213 83.7231C167.56 83.7231 167.816 83.6471 167.989 83.5004C168.158 83.3538 168.277 83.1148 168.326 82.7997C168.38 82.4793 168.408 82.0719 168.408 81.5667V81.2734H169.07V81.5505C169.07 82.061 169.027 82.5281 168.951 82.9301C168.869 83.3375 168.701 83.6579 168.435 83.9024C168.179 84.1468 167.767 84.2608 167.207 84.2554Z" fill="#4D4D4D"/>
<path d="M171.455 76.4719H172.172V84.1359H171.455V76.4719ZM171.455 74.2449H172.172V75.467H171.455V74.2449Z" fill="#4D4D4D"/>
<path d="M175.371 79.7091H177.826V79.1116C177.826 78.6554 177.799 78.2589 177.75 77.9221C177.701 77.5908 177.598 77.3355 177.424 77.1563C177.256 76.977 176.99 76.8847 176.631 76.8847C176.349 76.8847 176.115 76.9444 175.92 77.0639C175.73 77.1834 175.588 77.4061 175.502 77.7266C175.415 78.0471 175.366 78.5142 175.366 79.1225V79.7091H175.371ZM174.996 75.7821L176.137 73.3976H177.012L178.141 75.7821H177.636L176.572 73.7506L175.507 75.7821H174.996ZM176.62 84.2554C176.213 84.2554 175.86 84.1739 175.567 84.011C175.273 83.848 175.051 83.5547 174.893 83.1202C174.741 82.6965 174.66 82.0882 174.66 81.3006V79.2583C174.66 78.4544 174.741 77.8461 174.899 77.4333C175.056 77.015 175.284 76.7326 175.583 76.5859C175.876 76.4393 176.229 76.3632 176.626 76.3632C177.104 76.3632 177.479 76.4664 177.75 76.6674C178.022 76.8684 178.217 77.1943 178.331 77.6451C178.451 78.0905 178.5 78.6826 178.5 79.4158V80.1437H175.349V81.3658C175.349 81.9741 175.393 82.4521 175.48 82.7997C175.567 83.1474 175.697 83.3863 175.887 83.5276C176.072 83.6688 176.316 83.7394 176.604 83.7394C176.789 83.7394 176.979 83.7068 177.158 83.6471C177.337 83.5873 177.5 83.4407 177.62 83.2125C177.745 82.9844 177.805 82.6259 177.805 82.1371V81.5667H178.494V82.0719C178.494 82.7291 178.359 83.256 178.087 83.6634C177.815 84.0707 177.321 84.2717 176.593 84.2717L176.62 84.2554Z" fill="#4D4D4D"/>
<path d="M180.803 84.1413V76.4773H181.509V77.2975C181.748 77.015 182.019 76.7869 182.329 76.6131C182.639 76.4447 182.97 76.3524 183.328 76.3524C183.557 76.3524 183.768 76.4067 183.948 76.5153C184.127 76.624 184.274 76.8032 184.382 77.0476C184.491 77.2921 184.54 77.6179 184.54 78.0253V84.1359H183.834V78.1068C183.834 77.6397 183.758 77.3192 183.616 77.1508C183.47 76.9824 183.274 76.901 183.024 76.901C182.774 76.901 182.508 76.9824 182.248 77.1345C181.987 77.2866 181.742 77.4985 181.509 77.7537V84.1413H180.803Z" fill="#4D4D4D"/>
<path d="M188.744 84.2554C188.168 84.2554 187.739 84.1196 187.467 83.848C187.196 83.5764 187.011 83.218 186.93 82.7671C186.843 82.3163 186.799 81.8112 186.799 81.2517V79.4484C186.799 78.6989 186.859 78.0959 186.968 77.6342C187.076 77.1726 187.283 76.8521 187.565 76.6511C187.848 76.4502 188.239 76.347 188.733 76.347C189.265 76.347 189.667 76.4556 189.933 76.6729C190.205 76.8901 190.384 77.1834 190.471 77.5636C190.563 77.9439 190.607 78.3621 190.607 78.8292V79.1334H189.944V78.8292C189.944 78.3078 189.901 77.9058 189.814 77.6288C189.727 77.3518 189.602 77.1563 189.423 77.0476C189.249 76.9336 189.015 76.8847 188.733 76.8847C188.385 76.8847 188.125 76.9662 187.951 77.1291C187.777 77.2921 187.652 77.5528 187.592 77.9167C187.527 78.2806 187.5 78.764 187.5 79.3778V81.3658C187.5 82.1968 187.581 82.7997 187.744 83.1691C187.907 83.5439 188.239 83.7231 188.749 83.7231C189.097 83.7231 189.352 83.6471 189.526 83.5004C189.694 83.3538 189.814 83.1148 189.863 82.7997C189.917 82.4793 189.944 82.0719 189.944 81.5667V81.2734H190.607V81.5505C190.607 82.061 190.563 82.5281 190.487 82.9301C190.406 83.3375 190.238 83.6579 189.971 83.9024C189.716 84.1468 189.309 84.2608 188.744 84.2554Z" fill="#4D4D4D"/>
<path d="M192.991 76.4719H193.708V84.1359H192.991V76.4719ZM192.991 74.2449H193.708V75.467H192.991V74.2449Z" fill="#4D4D4D"/>
<path d="M197.701 83.6742C197.918 83.6742 198.124 83.6253 198.298 83.5221C198.472 83.4189 198.635 83.2886 198.776 83.1202C198.917 82.9572 199.031 82.7834 199.124 82.5988V80.0785C198.657 80.3229 198.266 80.5347 197.951 80.714C197.635 80.8878 197.391 81.0616 197.206 81.2191C197.027 81.3766 196.897 81.5559 196.815 81.7569C196.734 81.9578 196.696 82.1968 196.696 82.4793C196.696 82.9355 196.804 83.2505 197.016 83.4244C197.228 83.5982 197.462 83.6742 197.706 83.6742H197.701ZM197.532 84.2554C197.223 84.2554 196.951 84.1848 196.723 84.0436C196.495 83.9023 196.31 83.7068 196.185 83.4515C196.055 83.2017 195.995 82.9084 195.995 82.5825C195.995 82.2566 196.039 81.9687 196.125 81.7297C196.212 81.4853 196.359 81.2626 196.582 81.0453C196.804 80.8335 197.119 80.6108 197.532 80.3718C197.945 80.1382 198.477 79.8666 199.135 79.557V79.0139C199.135 78.4599 199.102 78.0253 199.031 77.7157C198.966 77.4061 198.858 77.1889 198.7 77.0639C198.548 76.939 198.336 76.8792 198.07 76.8792C197.869 76.8792 197.668 76.9173 197.489 76.9879C197.304 77.0585 197.152 77.1943 197.033 77.4061C196.913 77.6125 196.853 77.9221 196.853 78.3295V78.525H196.163C196.163 77.7918 196.316 77.2486 196.609 76.8901C196.902 76.5316 197.402 76.3524 198.103 76.3524C198.749 76.3524 199.2 76.5534 199.46 76.9607C199.716 77.3681 199.846 78.0253 199.846 78.9378V82.7943C199.846 82.8649 199.846 83.0007 199.852 83.2017C199.852 83.3972 199.862 83.5927 199.862 83.7774C199.862 83.9621 199.873 84.0816 199.884 84.1359H199.276C199.26 83.9512 199.232 83.7557 199.211 83.5547C199.189 83.3538 199.167 83.2017 199.156 83.1202C199.037 83.4407 198.841 83.7068 198.559 83.9295C198.26 84.1468 197.923 84.25 197.532 84.2554Z" fill="#4D4D4D"/>
<path d="M208.086 84.2717C207.521 84.2717 207.049 84.1522 206.69 83.9241C206.321 83.6959 206.044 83.37 205.854 82.9518C205.663 82.5336 205.544 82.0447 205.5 81.4798L206.125 81.2843C206.19 81.7514 206.277 82.1696 206.413 82.5336C206.543 82.8975 206.739 83.1799 207.005 83.3755C207.271 83.571 207.641 83.6742 208.108 83.6742C208.64 83.6742 209.058 83.5384 209.362 83.2723C209.667 83.0061 209.819 82.5662 209.819 81.9469C209.819 81.4798 209.694 81.0562 209.455 80.6814C209.216 80.3066 208.868 79.9047 208.423 79.4647L206.456 77.5147C206.131 77.178 205.892 76.8412 205.739 76.5099C205.587 76.1731 205.517 75.8255 205.517 75.4779C205.517 74.7718 205.734 74.2232 206.174 73.8484C206.614 73.4682 207.184 73.2781 207.88 73.2781C208.243 73.2781 208.569 73.327 208.863 73.4193C209.156 73.5116 209.406 73.6637 209.623 73.8701C209.84 74.0765 210.014 74.3535 210.134 74.6957C210.259 75.0434 210.335 75.4616 210.373 75.9667L209.764 76.1079C209.726 75.6028 209.645 75.1846 209.514 74.8478C209.379 74.5111 209.189 74.2612 208.933 74.0982C208.678 73.9353 208.33 73.8538 207.896 73.8538C207.412 73.8538 207 73.9788 206.674 74.2286C206.348 74.473 206.185 74.875 206.185 75.4236C206.185 75.6951 206.239 75.9613 206.348 76.2166C206.456 76.4719 206.663 76.7489 206.967 77.0531L208.906 78.9596C209.341 79.3832 209.71 79.8395 210.025 80.3175C210.34 80.7954 210.492 81.3277 210.492 81.8981C210.492 82.4358 210.389 82.8812 210.188 83.2288C209.987 83.5819 209.705 83.8372 209.341 84.0055C208.977 84.1685 208.564 84.2554 208.091 84.2554L208.086 84.2717Z" fill="#4D4D4D"/>
<path d="M214.435 83.7231C214.81 83.7231 215.082 83.6253 215.256 83.4352C215.429 83.2451 215.543 82.9735 215.592 82.6205C215.641 82.2674 215.668 81.8492 215.668 81.3603V79.242C215.668 78.7477 215.641 78.3241 215.592 77.9764C215.543 77.6234 215.435 77.3572 215.256 77.1671C215.082 76.977 214.799 76.8793 214.435 76.8793C214.066 76.8793 213.789 76.977 213.621 77.1671C213.452 77.3572 213.338 77.6234 213.289 77.9764C213.24 78.3295 213.213 78.7477 213.213 79.242V81.3603C213.213 81.8438 213.24 82.2674 213.289 82.6205C213.338 82.9735 213.447 83.2451 213.621 83.4352C213.789 83.6253 214.061 83.7231 214.435 83.7231ZM214.435 84.2554C213.93 84.2554 213.539 84.1413 213.262 83.9241C212.985 83.7068 212.79 83.3755 212.681 82.9464C212.567 82.5173 212.518 81.9741 212.518 81.3441V79.2746C212.518 78.6391 212.572 78.1014 212.681 77.6723C212.79 77.2432 212.985 76.9118 213.262 76.6946C213.539 76.4773 213.936 76.3633 214.435 76.3633C214.935 76.3633 215.343 76.4773 215.625 76.6946C215.902 76.9173 216.097 77.2377 216.206 77.6723C216.32 78.0959 216.369 78.6391 216.369 79.28V81.3495C216.369 81.985 216.315 82.5227 216.206 82.9518C216.092 83.3809 215.902 83.7122 215.625 83.9295C215.348 84.1522 214.951 84.2554 214.435 84.2554Z" fill="#4D4D4D"/>
<path d="M220.486 84.2554C219.91 84.2554 219.481 84.1196 219.21 83.848C218.938 83.5764 218.753 83.218 218.672 82.7671C218.585 82.3163 218.542 81.8112 218.542 81.2517V79.4484C218.542 78.6989 218.601 78.0959 218.71 77.6342C218.824 77.178 219.025 76.8521 219.307 76.6511C219.59 76.4502 219.981 76.347 220.475 76.347C221.007 76.347 221.409 76.4556 221.676 76.6729C221.947 76.8901 222.126 77.1834 222.213 77.5636C222.306 77.9439 222.349 78.3621 222.349 78.8292V79.1334H221.686V78.8292C221.686 78.3078 221.643 77.9058 221.556 77.6288C221.469 77.3518 221.344 77.1563 221.165 77.0476C220.991 76.9336 220.758 76.8847 220.475 76.8847C220.128 76.8847 219.867 76.9662 219.693 77.1291C219.519 77.2921 219.394 77.5528 219.335 77.9167C219.269 78.2806 219.242 78.764 219.242 79.3778V81.3658C219.242 82.1968 219.324 82.7997 219.487 83.1691C219.65 83.5439 219.981 83.7231 220.491 83.7231C220.839 83.7231 221.094 83.6471 221.268 83.5004C221.437 83.3538 221.556 83.1148 221.605 82.7997C221.659 82.4793 221.686 82.0719 221.686 81.5667V81.2734H222.349V81.5505C222.349 82.061 222.306 82.5281 222.23 82.9301C222.148 83.3375 221.98 83.6579 221.714 83.9024C221.447 84.1468 221.045 84.2608 220.486 84.2554Z" fill="#4D4D4D"/>
<path d="M224.734 76.4719H225.451V84.1359H224.734V76.4719ZM224.734 74.2449H225.451V75.467H224.734V74.2449Z" fill="#4D4D4D"/>
<path d="M229.877 83.7231C230.252 83.7231 230.524 83.6253 230.698 83.4352C230.871 83.2451 230.985 82.9735 231.034 82.6205C231.083 82.2674 231.11 81.8492 231.11 81.3603V79.242C231.11 78.7477 231.083 78.3241 231.034 77.9764C230.985 77.6234 230.877 77.3572 230.698 77.1671C230.524 76.977 230.241 76.8793 229.877 76.8793C229.508 76.8793 229.231 76.977 229.063 77.1671C228.894 77.3572 228.78 77.6234 228.731 77.9764C228.682 78.3295 228.655 78.7477 228.655 79.242V81.3603C228.655 81.8438 228.682 82.2674 228.731 82.6205C228.78 82.9735 228.889 83.2451 229.063 83.4352C229.231 83.6253 229.503 83.7231 229.877 83.7231ZM229.877 84.2554C229.372 84.2554 228.981 84.1413 228.704 83.9241C228.427 83.7068 228.232 83.3755 228.123 82.9464C228.009 82.5173 227.96 81.9741 227.96 81.3441V79.2746C227.96 78.6391 228.014 78.1014 228.123 77.6723C228.237 77.2432 228.427 76.9118 228.704 76.6946C228.981 76.4773 229.378 76.3633 229.877 76.3633C230.377 76.3633 230.784 76.4773 231.067 76.6946C231.344 76.9173 231.539 77.2377 231.648 77.6723C231.762 78.0959 231.811 78.6391 231.811 79.28V81.3495C231.811 81.985 231.757 82.5227 231.648 82.9518C231.534 83.3809 231.344 83.7122 231.067 83.9295C230.79 84.1522 230.393 84.2554 229.877 84.2554Z" fill="#4D4D4D"/>
<path d="M234.695 79.7091H237.151V79.1117C237.151 78.6554 237.123 78.2589 237.074 77.9221C237.026 77.5908 236.922 77.3355 236.749 77.1563C236.58 76.977 236.314 76.8847 235.956 76.8847C235.673 76.8847 235.44 76.9444 235.244 77.0639C235.054 77.1834 234.913 77.4061 234.826 77.7266C234.739 78.0471 234.69 78.5142 234.69 79.1225V79.7091H234.695ZM235.945 84.2554C235.537 84.2554 235.184 84.1739 234.891 84.011C234.598 83.848 234.375 83.5547 234.217 83.1202C234.065 82.6965 233.984 82.0882 233.984 81.3006V79.2583C233.984 78.4544 234.065 77.8461 234.223 77.4333C234.38 77.015 234.609 76.7326 234.907 76.5859C235.201 76.4393 235.554 76.3633 235.95 76.3633C236.428 76.3633 236.803 76.4665 237.074 76.6674C237.346 76.8684 237.542 77.1943 237.656 77.6451C237.775 78.0905 237.824 78.6826 237.824 79.4158V80.1437H234.674V81.3658C234.674 81.9741 234.717 82.4521 234.804 82.7997C234.891 83.1474 235.021 83.3863 235.211 83.5276C235.396 83.6688 235.641 83.7394 235.928 83.7394C236.113 83.7394 236.303 83.7068 236.482 83.6471C236.662 83.5873 236.825 83.4407 236.944 83.2125C237.069 82.9844 237.129 82.6259 237.129 82.1371V81.5668H237.819V82.0719C237.819 82.7291 237.683 83.256 237.411 83.6634C237.14 84.0707 236.645 84.2717 235.918 84.2717L235.945 84.2554Z" fill="#4D4D4D"/>
<path d="M241.92 84.2554C241.344 84.2554 240.915 84.1196 240.643 83.848C240.372 83.5764 240.187 83.218 240.105 82.7671C240.019 82.3163 239.975 81.8112 239.975 81.2517V79.4484C239.975 78.6989 240.035 78.0959 240.143 77.6342C240.258 77.178 240.459 76.8521 240.741 76.6511C241.023 76.4502 241.414 76.347 241.909 76.347C242.441 76.347 242.843 76.4556 243.109 76.6729C243.381 76.8901 243.56 77.1834 243.647 77.5636C243.739 77.9439 243.783 78.3621 243.783 78.8292V79.1334H243.12V78.8292C243.12 78.3078 243.077 77.9058 242.99 77.6288C242.903 77.3518 242.778 77.1563 242.599 77.0476C242.425 76.9336 242.191 76.8847 241.909 76.8847C241.561 76.8847 241.3 76.9662 241.127 77.1291C240.953 77.2921 240.828 77.5528 240.768 77.9167C240.703 78.2806 240.676 78.764 240.676 79.3778V81.3658C240.676 82.1968 240.757 82.7997 240.92 83.1691C241.083 83.5439 241.414 83.7231 241.925 83.7231C242.273 83.7231 242.528 83.6471 242.702 83.5004C242.87 83.3538 242.99 83.1148 243.039 82.7997C243.093 82.4793 243.12 82.0719 243.12 81.5667V81.2734H243.783V81.5505C243.783 82.061 243.739 82.5281 243.663 82.9301C243.582 83.3375 243.413 83.6579 243.147 83.9024C242.892 84.1468 242.479 84.2608 241.92 84.2554Z" fill="#4D4D4D"/>
<path d="M247.737 83.7231C248.111 83.7231 248.383 83.6253 248.557 83.4352C248.731 83.2451 248.845 82.9735 248.894 82.6205C248.943 82.2674 248.97 81.8492 248.97 81.3603V79.242C248.97 78.7477 248.943 78.3241 248.894 77.9764C248.845 77.6234 248.736 77.3572 248.557 77.1671C248.383 76.977 248.101 76.8793 247.737 76.8793C247.367 76.8793 247.09 76.977 246.922 77.1671C246.754 77.3572 246.64 77.6234 246.591 77.9764C246.542 78.3295 246.515 78.7477 246.515 79.242V81.3603C246.515 81.8438 246.542 82.2674 246.591 82.6205C246.64 82.9735 246.748 83.2451 246.922 83.4352C247.09 83.6253 247.362 83.7231 247.737 83.7231ZM247.737 84.2554C247.232 84.2554 246.84 84.1413 246.563 83.9241C246.286 83.7068 246.091 83.3755 245.982 82.9464C245.868 82.5173 245.819 81.9741 245.819 81.3441V79.2746C245.819 78.6391 245.874 78.1014 245.982 77.6723C246.096 77.2432 246.286 76.9118 246.563 76.6946C246.84 76.4773 247.237 76.3633 247.737 76.3633C248.236 76.3633 248.644 76.4773 248.926 76.6946C249.203 76.9173 249.399 77.2377 249.507 77.6723C249.621 78.0959 249.67 78.6391 249.67 79.28V81.3495C249.67 81.985 249.616 82.5227 249.507 82.9518C249.393 83.3809 249.203 83.7122 248.926 83.9295C248.649 84.1522 248.253 84.2554 247.737 84.2554Z" fill="#4D4D4D"/>
<path d="M251.995 84.1413V76.4773H252.701V77.2975C252.94 77.015 253.212 76.7869 253.521 76.6131C253.831 76.4447 254.162 76.3524 254.521 76.3524C254.749 76.3524 254.961 76.4067 255.14 76.5153C255.319 76.624 255.466 76.8032 255.575 77.0476C255.683 77.2921 255.732 77.6179 255.732 78.0253V84.1359H255.026V78.1068C255.026 77.6397 254.95 77.3192 254.809 77.1508C254.662 76.9824 254.467 76.901 254.217 76.901C253.967 76.901 253.701 76.9824 253.44 77.1345C253.179 77.2866 252.935 77.4985 252.701 77.7537V84.1413H251.995Z" fill="#4D4D4D"/>
<path d="M259.925 83.7231C260.3 83.7231 260.572 83.6253 260.745 83.4352C260.919 83.2451 261.033 82.9735 261.082 82.6205C261.131 82.2674 261.158 81.8492 261.158 81.3603V79.242C261.158 78.7477 261.131 78.3241 261.082 77.9764C261.033 77.6234 260.925 77.3572 260.745 77.1671C260.572 76.977 260.289 76.8793 259.925 76.8793C259.556 76.8793 259.279 76.977 259.11 77.1671C258.942 77.3572 258.828 77.6234 258.779 77.9764C258.73 78.3295 258.703 78.7477 258.703 79.242V81.3603C258.703 81.8438 258.73 82.2674 258.779 82.6205C258.828 82.9735 258.937 83.2451 259.11 83.4352C259.279 83.6308 259.55 83.7231 259.925 83.7231ZM258.355 75.7875L259.496 73.403H260.371L261.5 75.7875H260.995L259.931 73.7561L258.866 75.7875H258.355ZM259.925 84.2554C259.42 84.2554 259.029 84.1413 258.752 83.9241C258.475 83.7068 258.279 83.3755 258.171 82.9464C258.057 82.5173 258.008 81.9741 258.008 81.3441V79.2746C258.008 78.6391 258.062 78.1014 258.171 77.6723C258.285 77.2432 258.475 76.9118 258.752 76.6946C259.029 76.4773 259.425 76.3633 259.925 76.3633C260.425 76.3633 260.832 76.4773 261.115 76.6946C261.392 76.9173 261.587 77.2377 261.696 77.6723C261.81 78.0959 261.859 78.6391 261.859 79.28V81.3495C261.859 81.985 261.805 82.5227 261.696 82.9518C261.582 83.3809 261.392 83.7122 261.115 83.9295C260.838 84.1522 260.441 84.2554 259.925 84.2554Z" fill="#4D4D4D"/>
<path d="M264.184 84.1413V76.4773H264.846V77.2866C265.091 76.9879 265.373 76.7543 265.683 76.5859C265.992 76.4176 266.318 76.3415 266.655 76.3415C266.91 76.3415 267.149 76.4121 267.383 76.5534C267.606 76.6946 267.768 76.9662 267.85 77.3627C268.105 77.0368 268.393 76.7815 268.714 76.6077C269.034 76.4339 269.371 76.3415 269.724 76.3415C269.936 76.3415 270.142 76.3904 270.332 76.4827C270.522 76.5805 270.685 76.7543 270.81 77.0042C270.941 77.254 270.995 77.6125 270.995 78.0688V84.125H270.316V78.0525C270.316 77.5582 270.234 77.2323 270.077 77.0748C269.919 76.9173 269.724 76.8358 269.496 76.8358C269.224 76.8358 268.947 76.9173 268.676 77.0802C268.404 77.2432 268.143 77.4659 267.91 77.7374C267.921 77.7809 267.926 77.8352 267.931 77.8895C267.931 77.9493 267.937 78.009 267.937 78.0688V84.125H267.258V78.0525C267.258 77.5582 267.176 77.2323 267.019 77.0748C266.861 76.9173 266.666 76.8358 266.438 76.8358C266.172 76.8358 265.905 76.9173 265.628 77.0802C265.357 77.2432 265.096 77.4604 264.863 77.7266V84.1305H264.2L264.184 84.1413Z" fill="#4D4D4D"/>
<path d="M273.515 76.4719H274.232V84.1359H273.515V76.4719ZM273.515 74.2449H274.232V75.467H273.515V74.2449Z" fill="#4D4D4D"/>
<path d="M278.675 84.2554C278.1 84.2554 277.671 84.1196 277.399 83.848C277.127 83.5764 276.943 83.218 276.861 82.7671C276.774 82.3163 276.731 81.8112 276.731 81.2517V79.4484C276.731 78.6989 276.791 78.0959 276.899 77.6342C277.013 77.178 277.214 76.8521 277.497 76.6511C277.779 76.4502 278.17 76.347 278.665 76.347C279.197 76.347 279.599 76.4556 279.865 76.6729C280.137 76.8901 280.316 77.1834 280.403 77.5636C280.495 77.9439 280.539 78.3621 280.539 78.8292V79.1334H279.876V78.8292C279.876 78.3078 279.832 77.9058 279.746 77.6288C279.659 77.3518 279.534 77.1563 279.354 77.0476C279.181 76.9336 278.947 76.8847 278.665 76.8847C278.317 76.8847 278.056 76.9662 277.882 77.1291C277.709 77.2921 277.584 77.5528 277.524 77.9167C277.459 78.2806 277.432 78.764 277.432 79.3778V81.3658C277.432 82.1968 277.513 82.7997 277.676 83.1691C277.839 83.5439 278.17 83.7231 278.681 83.7231C279.029 83.7231 279.284 83.6471 279.458 83.5004C279.626 83.3538 279.746 83.1148 279.794 82.7997C279.849 82.4793 279.876 82.0719 279.876 81.5667V81.2734H280.539V81.5505C280.539 82.061 280.495 82.5281 280.419 82.9301C280.338 83.3375 280.169 83.6579 279.903 83.9024C279.642 84.1468 279.235 84.2608 278.675 84.2554Z" fill="#4D4D4D"/>
<path d="M284.161 83.6742C284.378 83.6742 284.585 83.6253 284.759 83.5221C284.932 83.4189 285.095 83.2886 285.237 83.1202C285.378 82.9572 285.492 82.7834 285.584 82.5988V80.0785C285.117 80.3229 284.726 80.5347 284.411 80.714C284.096 80.8878 283.851 81.0616 283.667 81.2191C283.488 81.3766 283.357 81.5559 283.276 81.7569C283.194 81.9578 283.156 82.1968 283.156 82.4793C283.156 82.9355 283.265 83.2505 283.477 83.4244C283.689 83.5927 283.922 83.6742 284.167 83.6742H284.161ZM283.993 84.2554C283.683 84.2554 283.412 84.1848 283.183 84.0436C282.955 83.9023 282.771 83.7068 282.646 83.4515C282.515 83.2017 282.456 82.9084 282.456 82.5825C282.456 82.2566 282.499 81.9687 282.586 81.7297C282.673 81.4853 282.819 81.2626 283.042 81.0453C283.265 80.8335 283.58 80.6108 283.993 80.3718C284.405 80.1382 284.938 79.8666 285.595 79.557V79.0139C285.595 78.4599 285.562 78.0253 285.492 77.7157C285.427 77.4061 285.318 77.1889 285.161 77.0639C285.008 76.939 284.797 76.8792 284.53 76.8792C284.329 76.8792 284.129 76.9173 283.949 76.9879C283.765 77.0585 283.612 77.1943 283.493 77.4061C283.373 77.6125 283.314 77.9221 283.314 78.3295V78.525H282.624C282.624 77.7918 282.776 77.2486 283.069 76.8901C283.363 76.5316 283.862 76.3524 284.563 76.3524C285.209 76.3524 285.66 76.5534 285.921 76.9607C286.176 77.3681 286.307 78.0253 286.307 78.9378V82.7943C286.307 82.8649 286.307 83.0007 286.312 83.2017C286.312 83.3972 286.323 83.5927 286.323 83.7774C286.323 83.9621 286.334 84.0816 286.345 84.1359H285.736C285.72 83.9512 285.693 83.7557 285.671 83.5547C285.649 83.3538 285.628 83.2017 285.617 83.1202C285.497 83.4407 285.302 83.7068 285.019 83.9295C284.726 84.1468 284.389 84.25 283.993 84.2554Z" fill="#4D4D4D"/>
</svg>
