<svg width="120" height="47" viewBox="0 0 120 47" fill="none" xmlns="http://www.w3.org/2000/svg">
<g clip-path="url(#clip0_595_711)">
<path d="M14.3123 8.56671H0.376953V46.3049H14.3123V8.56671Z" fill="#F2F2F2"/>
<path d="M14.3123 0.306519H0.376953V5.10354H14.3123V0.306519Z" fill="#F2F2F2"/>
<mask id="mask0_595_711" style="mask-type:luminance" maskUnits="userSpaceOnUse" x="0" y="0" width="120" height="47">
<path d="M120 0H0V46.3297H120V0Z" fill="white"/>
</mask>
<g mask="url(#mask0_595_711)">
<path d="M52.7591 0.310669V18.2518C50.3481 18.2518 48.6953 18.7034 47.7963 19.594C46.8974 20.4888 46.3258 22.2576 46.0814 24.9006C45.2901 33.6744 41.8767 39.8674 35.8369 43.4797C32.6348 45.3604 28.0905 46.3049 22.204 46.3049H19.8262V28.2684H20.6008C23.3432 28.2684 25.3067 27.6968 26.479 26.5576C27.6514 25.4184 28.3307 23.4217 28.513 20.5675C28.7574 15.9238 29.1924 12.6595 29.8137 10.7788C30.4351 8.89808 31.711 7.02981 33.6331 5.17811C36.9886 1.93453 41.6406 0.310669 47.5851 0.310669H52.7591Z" fill="#F2F2F2"/>
</g>
<mask id="mask1_595_711" style="mask-type:luminance" maskUnits="userSpaceOnUse" x="0" y="0" width="120" height="47">
<path d="M120 0H0V46.3297H120V0Z" fill="white"/>
</mask>
<g mask="url(#mask1_595_711)">
<path d="M119.917 46.3049H103.065V22.1707C103.065 20.3148 102.871 19.0307 102.481 18.3099C102.092 17.5932 101.383 17.2328 100.364 17.2328C98.4713 17.2328 97.5268 18.894 97.5268 22.2121V46.3049H80.6751V22.1707C80.6751 20.3148 80.4721 19.0307 80.0662 18.3099C79.6602 17.5932 78.9477 17.2328 77.9245 17.2328C76.0645 17.2328 75.1325 18.894 75.1325 22.2121V46.3049H58.2808V18.7573C58.2808 13.7324 59.9792 9.46148 63.3719 5.94864C66.7687 2.4358 70.8823 0.675232 75.7166 0.675232C80.5508 0.675232 85.178 2.77134 89.1424 6.95527C93.5583 2.77134 97.9701 0.679374 102.39 0.679374C108.007 0.679374 112.514 2.71334 115.907 6.78128C118.579 9.9503 119.917 14.5733 119.917 20.6421V46.3049Z" fill="#F2F2F2"/>
</g>
</g>
<defs>
<clipPath id="clip0_595_711">
<rect width="120" height="46.3297" fill="white"/>
</clipPath>
</defs>
</svg>
